<?xml version="1.0" encoding="UTF-8" standalone="no"?>
<!-- Created with Inkscape (http://www.inkscape.org/) -->

<svg
   width="200mm"
   height="200mm"
   viewBox="0 0 200 200"
   version="1.1"
   id="svg1"
   xml:space="preserve"
   inkscape:version="1.3 (0e150ed6c4, 2023-07-21)"
   sodipodi:docname="HALS_LOGO_FINAL.svg"
   xmlns:inkscape="http://www.inkscape.org/namespaces/inkscape"
   xmlns:sodipodi="http://sodipodi.sourceforge.net/DTD/sodipodi-0.dtd"
   xmlns:xlink="http://www.w3.org/1999/xlink"
   xmlns="http://www.w3.org/2000/svg"
   xmlns:svg="http://www.w3.org/2000/svg"><sodipodi:namedview
     id="namedview1"
     pagecolor="#505050"
     bordercolor="#eeeeee"
     borderopacity="1"
     inkscape:showpageshadow="0"
     inkscape:pageopacity="0"
     inkscape:pagecheckerboard="0"
     inkscape:deskcolor="#505050"
     inkscape:document-units="mm"
     inkscape:zoom="2"
     inkscape:cx="397.75"
     inkscape:cy="409"
     inkscape:window-width="1920"
     inkscape:window-height="1008"
     inkscape:window-x="1360"
     inkscape:window-y="420"
     inkscape:window-maximized="1"
     inkscape:current-layer="svg1"
     showgrid="true"><inkscape:grid
       id="grid1"
       units="mm"
       originx="0"
       originy="0"
       spacingx="0.99999998"
       spacingy="1"
       empcolor="#0099e5"
       empopacity="0.30196078"
       color="#0099e5"
       opacity="0.14901961"
       empspacing="5"
       dotted="false"
       gridanglex="30"
       gridanglez="30"
       visible="true" /></sodipodi:namedview><defs
     id="defs1"><linearGradient
       id="linearGradient31"
       inkscape:collect="always"><stop
         style="stop-color:#f4f99f;stop-opacity:1;"
         offset="0"
         id="stop31" /><stop
         style="stop-color:#97dcc9;stop-opacity:1;"
         offset="0.50096238"
         id="stop33" /><stop
         style="stop-color:#39c0ed;stop-opacity:1;"
         offset="1"
         id="stop32" /></linearGradient><rect
       x="128.44753"
       y="326.70349"
       width="476.09354"
       height="329.49582"
       id="rect2" /><rect
       x="141.01305"
       y="388.13492"
       width="501.22458"
       height="201.04829"
       id="rect1" /><linearGradient
       inkscape:collect="always"
       xlink:href="#linearGradient31"
       id="linearGradient32"
       x1="104.78671"
       y1="29.631695"
       x2="105.66035"
       y2="219.88019"
       gradientUnits="userSpaceOnUse"
       gradientTransform="matrix(1.0013622,0,0,1.001063,-4.9309067,-24.655553)" /></defs><g
     inkscape:groupmode="layer"
     id="layer2"
     inkscape:label="Layer 2"
     transform="matrix(1.2806845,0,0,1.2806845,-29.239069,-23.162847)"><text
       xml:space="preserve"
       transform="matrix(0.45474133,0,0,0.45209894,-14.53675,-76.979655)"
       id="text2"
       style="font-style:normal;font-variant:normal;font-weight:normal;font-stretch:normal;font-size:96px;font-family:'file:///home/trash/Desktop/2.0.0/Araboto.ttf';-inkscape-font-specification:'file:///home/trash/Desktop/2.0.0/Araboto.ttf';white-space:pre;shape-inside:url(#rect2);display:inline;opacity:1;fill:#ffffff;fill-opacity:1"><tspan
         x="128.44727"
         y="414.05114"
         id="tspan4"><tspan
           style="font-family:Araboto-Medium;-inkscape-font-specification:Araboto-Medium"
           id="tspan1">HALS</tspan></tspan></text><path
       id="rect30"
       style="opacity:1;color:#000000;display:inline;fill:url(#linearGradient32);fill-rule:nonzero;stroke-width:1.00121;-inkscape-stroke:none"
       d="M 99.48043,5.0030195 C 95.21237,5.0794521 90.523019,6.7763296 87.531577,10.275996 L 9.6189801,89.373761 C 3.2661883,95.957071 3.5248375,105.6462 10.035024,112.07401 l 79.206784,78.20383 c 6.510195,6.42781 16.630232,6.25256 23.048042,-0.26744 l 78.23809,-79.48419 c 6.3528,-6.58331 5.8016,-16.696229 -0.78293,-23.047884 L 110.6148,9.3525922 c -3.29228,-3.1758259 -6.86631,-4.426 -11.13437,-4.3495727 z m 0.119537,8.1285495 c 2.053683,-0.03678 3.635893,0.35402 5.274553,1.934751 l 80.00525,78.768241 c 3.2774,3.161462 3.59566,7.633379 0.43364,10.910139 l -78.96979,80.14327 c -3.16202,3.27676 -7.896321,3.18211 -11.173697,0.0207 L 15.550199,106.37372 c -3.277389,-3.16145 -3.374195,-8.080341 -0.212161,-11.357106 4.527416,-4.918072 9.141663,-9.784143 13.788457,-14.629623 a 3.1095236,3.1085947 0 0 1 -0.18215,-1.02584 3.1095236,3.1085947 0 0 1 3.109984,-3.108529 3.1095236,3.1085947 0 0 1 0.910225,0.136574 C 52.943526,55.743281 73.728904,35.62178 93.820366,15.30118 c 1.581002,-1.638384 3.725915,-2.132836 5.779601,-2.169611 z"
       transform="matrix(0.78083245,0,0,0.78083245,22.830814,18.086302)" /></g></svg>
